<svg xmlns="http://www.w3.org/2000/svg" xmlns:xlink="http://www.w3.org/1999/xlink" viewBox="0,0,256,256" width="48px" height="48px"><g fill="none" fill-rule="nonzero" stroke="none" stroke-width="1" stroke-linecap="butt" stroke-linejoin="miter" stroke-miterlimit="10" stroke-dasharray="" stroke-dashoffset="0" font-family="none" font-weight="none" font-size="none" text-anchor="none" style="mix-blend-mode: normal"><g transform="scale(5.33333,5.33333)"><path d="M38.418,23.788l4.182,-5.797l-6.942,-2.158l-0.133,-7.49l-7.173,2.623l-4.358,-5.966l-4.358,5.712l-7.428,-2.369l0.179,7.32l-7.208,2.369l4.315,5.756l-4.494,5.782l7.387,2.342v6.983l7.249,-2.032l4.409,6.137l4.307,-6.18l7.173,2.075v-7.025l7.475,-2.3z" fill="#627aff"></path><path d="M16.924,21.593l-0.386,-7.861l7.507,2.794v7.263z" fill="#2748ff"></path><path d="M28.352,29.57v7.25l7.173,2.075v-7.025z" fill="#0122e1"></path><path d="M24.045,35.975l-4.409,-6.404l4.409,-5.782l4.307,5.782z" fill="#7a8eff"></path><path d="M19.636,10.712l4.358,-5.712l4.358,5.966l-4.307,5.559z" fill="#7a8eff"></path><path d="M31.256,21.593l4.402,-5.76l6.942,2.158l-4.182,5.797z" fill="#7287ff"></path><path d="M24.045,23.788l7.211,-2.195l4.936,5.993l-7.84,1.984z" fill="#4460ff"></path><path d="M16.924,21.593l-4.537,-5.93l-7.208,2.369l4.315,5.756z" fill="#1c3dfa"></path><path d="M24.045,16.525l7.404,-2.893l4.076,-5.289l-7.173,2.623z" fill="#405aed"></path><path d="M24.045,23.788v-7.263l7.404,-2.894l-0.193,7.961z" fill="#223fe6"></path><path d="M19.636,29.57v7.293l-7.249,2.032v-6.983z" fill="#1c38d7"></path><path d="M9.494,23.788l7.43,-2.195l-5.15,5.618l-6.774,2.359z" fill="#0122e1"></path><path d="M16.924,21.593l-4.537,-5.93l-0.179,-7.32l4.33,5.388z" fill="#1e3bde"></path><path d="M19.636,29.57v7.293l4.409,6.137v-7.025z" fill="#152cb0"></path><path d="M28.352,29.57l7.839,-1.984l6.809,1.984l-7.475,2.3z" fill="#011ec5"></path><path d="M31.256,21.593l4.402,-5.76l-0.133,-7.49l-4.076,5.289z" fill="#4f69fd"></path><path d="M16.538,13.731l7.507,2.794l-4.409,-5.813l-7.428,-2.369z" fill="#4f69fd"></path><path d="M28.352,29.57v7.25l-4.307,6.18v-7.025z" fill="#1c38d7"></path><path d="M31.256,21.593l4.935,5.993l6.809,1.984l-4.582,-5.782z" fill="#2949ff"></path><path d="M12.387,31.912l7.249,-2.342l-7.862,-2.359l-6.774,2.359z" fill="#1830bb"></path><path d="M24.045,23.788l-4.409,5.782l-7.861,-2.359l5.15,-5.618z" fill="#627aff"></path></g></g></svg>